<?xml version="1.0" standalone="no"?>
<!DOCTYPE svg PUBLIC "-//W3C//DTD SVG 20010904//EN"
 "http://www.w3.org/TR/2001/REC-SVG-20010904/DTD/svg10.dtd">
<svg version="1.0" xmlns="http://www.w3.org/2000/svg"
 width="600.000000pt" height="600.000000pt" viewBox="0 0 600.000000 600.000000"
 preserveAspectRatio="xMidYMid meet">

<g transform="translate(0.000000,600.000000) scale(0.100000,-0.100000)"
fill="#000000" stroke="none">
<path d="M2926 4859 c-369 -39 -752 -199 -1046 -436 -89 -72 -257 -243 -321
-328 -407 -533 -525 -1217 -318 -1850 101 -307 273 -580 510 -810 168 -162
316 -266 521 -365 682 -329 1486 -245 2093 219 85 64 256 232 328 321 583 722
595 1743 28 2485 -64 85 -232 256 -321 328 -411 332 -950 491 -1474 436z m434
-99 c463 -58 899 -283 1197 -620 318 -358 483 -793 483 -1270 0 -475 -168
-916 -483 -1270 -269 -303 -663 -524 -1074 -602 -102 -20 -150 -23 -353 -22
-216 0 -245 2 -361 27 -382 81 -692 247 -963 514 -170 168 -276 318 -381 536
-75 157 -116 277 -152 446 -25 117 -27 143 -27 371 0 228 2 254 27 371 36 172
76 289 152 446 105 218 211 368 381 536 308 304 691 488 1129 540 69 9 347 6
425 -3z"/>
<path d="M3170 4646 l0 -74 -107 -7 c-302 -19 -560 -98 -800 -243 -56 -34
-104 -62 -106 -62 -2 0 -21 25 -42 55 -20 30 -41 55 -46 55 -15 0 -165 -125
-240 -200 -174 -176 -311 -385 -405 -618 -39 -96 -40 -92 41 -118 28 -9 53
-19 57 -23 4 -3 -2 -36 -13 -71 -80 -258 -84 -631 -9 -908 11 -40 20 -74 20
-77 0 -2 -32 -14 -70 -25 -39 -11 -70 -23 -70 -25 0 -13 77 -198 107 -260 115
-228 309 -469 501 -618 l61 -47 42 60 42 60 31 -20 c274 -181 526 -272 831
-300 61 -5 118 -10 128 -10 15 0 17 -10 17 -75 0 -87 -16 -81 155 -65 291 27
558 114 800 260 54 33 83 56 79 63 -4 7 -22 33 -41 58 -18 26 -33 49 -33 51 0
3 33 30 73 61 95 73 259 242 335 345 75 101 141 217 192 337 22 49 44 91 49
93 6 2 36 -6 66 -17 31 -12 59 -21 64 -21 24 0 86 290 102 475 17 192 -11 477
-62 632 l-10 32 -47 -15 c-98 -30 -97 -31 -111 18 -36 124 -136 321 -230 452
-62 89 -216 254 -302 326 l-56 47 44 59 44 58 -23 18 c-54 43 -210 135 -303
179 -194 92 -404 148 -630 169 -60 5 -113 10 -117 10 -5 0 -8 -33 -8 -74z
m749 -693 c-105 -279 -139 -343 -184 -343 -22 0 -22 2 -18 63 10 118 -17 135
-231 148 -190 11 -386 11 -386 1 0 -4 -13 -133 -30 -285 -16 -153 -30 -282
-30 -287 0 -6 15 -10 34 -10 29 0 45 11 107 73 119 118 245 167 434 167 107 0
197 -16 286 -49 99 -38 98 -28 33 -176 -62 -144 -76 -165 -110 -165 -32 0 -36
12 -24 66 19 86 -12 144 -101 189 -137 70 -373 44 -431 -47 -40 -63 -42 -62
104 -54 73 3 165 9 203 12 l70 6 -55 -56 c-31 -32 -81 -70 -114 -86 -52 -27
-70 -30 -148 -30 -100 0 -104 -4 -62 -66 40 -61 97 -116 259 -251 83 -70 169
-144 192 -167 l43 -40 25 24 c22 21 28 22 35 10 13 -20 12 -46 -1 -68 -9 -14
-5 -27 20 -67 57 -90 76 -205 50 -314 -38 -167 -189 -311 -397 -379 -93 -29
-292 -42 -383 -23 -127 26 -244 113 -289 213 -17 39 -17 43 -2 53 39 27 190
115 196 115 3 0 6 -9 6 -20 0 -37 40 -127 76 -169 46 -53 113 -87 200 -101
175 -28 338 43 394 172 41 95 16 238 -56 325 l-19 23 -60 -30 c-109 -53 -183
-64 -410 -57 -110 3 -346 20 -525 37 -179 17 -370 34 -425 37 -55 3 -106 9
-114 13 -9 5 20 33 95 90 l108 82 120 -16 c166 -22 181 -21 238 15 114 74 125
116 197 774 28 253 54 475 57 494 l5 34 -88 -7 c-226 -18 -356 -84 -420 -214
-25 -50 -28 -68 -27 -147 0 -69 6 -104 24 -150 l23 -59 -98 -94 c-68 -64 -100
-89 -106 -81 -4 7 -13 50 -20 96 -15 100 -1 220 37 320 69 186 236 342 435
408 138 46 226 55 579 56 179 1 384 5 455 8 72 4 154 8 182 9 l53 2 -11 -27z"/>
<path d="M3016 3033 c-10 -107 -42 -262 -67 -319 -28 -66 -78 -124 -154 -181
-35 -26 -63 -48 -62 -50 2 -1 90 -10 197 -19 229 -20 554 -24 570 -8 8 8 -22
37 -107 106 -162 132 -276 251 -309 323 -22 48 -27 72 -26 142 0 73 -2 83 -18
83 -14 0 -18 -13 -24 -77z"/>
</g>
</svg>
