<?xml version="1.0" encoding="UTF-8"?>
<svg xmlns="http://www.w3.org/2000/svg" xmlns:xlink="http://www.w3.org/1999/xlink" width="24pt" height="24pt" viewBox="0 0 24 24" version="1.1">
<g id="surface1">
<path style=" stroke:none;fill-rule:nonzero;fill:rgb(0%,0%,0%);fill-opacity:1;" d="M 11.703125 4.5625 C 10.226562 4.71875 8.695312 5.359375 7.519531 6.308594 C 7.164062 6.597656 6.492188 7.28125 6.234375 7.621094 C 4.609375 9.753906 4.136719 12.488281 4.964844 15.019531 C 5.367188 16.246094 6.054688 17.339844 7.003906 18.261719 C 7.675781 18.90625 8.269531 19.324219 9.089844 19.71875 C 11.816406 21.035156 15.03125 20.699219 17.460938 18.84375 C 17.800781 18.589844 18.484375 17.914062 18.773438 17.558594 C 21.105469 14.671875 21.152344 10.589844 18.882812 7.621094 C 18.628906 7.28125 17.957031 6.597656 17.601562 6.308594 C 15.957031 4.980469 13.800781 4.34375 11.703125 4.5625 Z M 13.441406 4.960938 C 15.292969 5.191406 17.035156 6.09375 18.226562 7.441406 C 19.5 8.871094 20.160156 10.613281 20.160156 12.519531 C 20.160156 14.421875 19.488281 16.183594 18.226562 17.601562 C 17.152344 18.8125 15.574219 19.695312 13.933594 20.007812 C 13.523438 20.089844 13.332031 20.101562 12.519531 20.097656 C 11.65625 20.097656 11.539062 20.089844 11.074219 19.988281 C 9.546875 19.664062 8.308594 19 7.222656 17.933594 C 6.542969 17.261719 6.121094 16.660156 5.699219 15.789062 C 5.398438 15.160156 5.234375 14.679688 5.09375 14.003906 C 4.992188 13.535156 4.984375 13.433594 4.984375 12.519531 C 4.984375 11.609375 4.992188 11.503906 5.09375 11.035156 C 5.234375 10.347656 5.394531 9.878906 5.699219 9.253906 C 6.121094 8.378906 6.542969 7.78125 7.222656 7.109375 C 8.457031 5.890625 9.988281 5.15625 11.738281 4.949219 C 12.015625 4.910156 13.128906 4.925781 13.441406 4.960938 Z M 13.441406 4.960938 "/>
<path style=" stroke:none;fill-rule:nonzero;fill:rgb(0%,0%,0%);fill-opacity:1;" d="M 12.679688 5.414062 L 12.679688 5.710938 L 12.253906 5.738281 C 11.042969 5.816406 10.011719 6.132812 9.050781 6.710938 C 8.828125 6.847656 8.636719 6.960938 8.628906 6.960938 C 8.621094 6.960938 8.542969 6.859375 8.460938 6.738281 C 8.378906 6.621094 8.296875 6.519531 8.277344 6.519531 C 8.214844 6.519531 7.617188 7.019531 7.316406 7.320312 C 6.621094 8.023438 6.070312 8.859375 5.695312 9.792969 C 5.539062 10.175781 5.535156 10.160156 5.859375 10.265625 C 5.972656 10.300781 6.070312 10.339844 6.089844 10.355469 C 6.105469 10.367188 6.078125 10.5 6.035156 10.640625 C 5.714844 11.671875 5.699219 13.164062 6 14.273438 C 6.042969 14.433594 6.078125 14.566406 6.078125 14.578125 C 6.078125 14.589844 5.953125 14.636719 5.800781 14.679688 C 5.644531 14.722656 5.519531 14.773438 5.519531 14.78125 C 5.519531 14.832031 5.828125 15.570312 5.949219 15.820312 C 6.40625 16.730469 7.183594 17.695312 7.953125 18.292969 L 8.195312 18.480469 L 8.363281 18.238281 L 8.53125 18 L 8.65625 18.078125 C 9.753906 18.804688 10.761719 19.167969 11.980469 19.28125 C 12.222656 19.300781 12.453125 19.320312 12.492188 19.320312 C 12.550781 19.320312 12.558594 19.359375 12.558594 19.621094 C 12.558594 19.96875 12.496094 19.945312 13.179688 19.878906 C 14.34375 19.773438 15.410156 19.425781 16.378906 18.839844 C 16.597656 18.707031 16.710938 18.617188 16.695312 18.589844 C 16.679688 18.558594 16.609375 18.457031 16.53125 18.355469 C 16.460938 18.253906 16.398438 18.160156 16.398438 18.152344 C 16.398438 18.140625 16.53125 18.03125 16.691406 17.90625 C 17.070312 17.617188 17.726562 16.941406 18.03125 16.527344 C 18.332031 16.125 18.597656 15.660156 18.800781 15.179688 C 18.886719 14.984375 18.976562 14.816406 18.996094 14.808594 C 19.019531 14.800781 19.140625 14.832031 19.261719 14.875 C 19.382812 14.925781 19.496094 14.960938 19.515625 14.960938 C 19.613281 14.960938 19.859375 13.800781 19.925781 13.058594 C 19.992188 12.292969 19.878906 11.152344 19.675781 10.53125 L 19.636719 10.402344 L 19.449219 10.464844 C 19.054688 10.585938 19.058594 10.589844 19.003906 10.390625 C 18.859375 9.894531 18.460938 9.109375 18.085938 8.585938 C 17.835938 8.226562 17.21875 7.566406 16.875 7.28125 L 16.652344 7.09375 L 16.828125 6.855469 L 17.003906 6.625 L 16.910156 6.550781 C 16.695312 6.378906 16.070312 6.011719 15.699219 5.835938 C 14.925781 5.46875 14.085938 5.242188 13.179688 5.160156 C 12.941406 5.140625 12.726562 5.121094 12.710938 5.121094 C 12.691406 5.121094 12.679688 5.253906 12.679688 5.414062 Z M 15.675781 8.1875 C 15.257812 9.304688 15.121094 9.558594 14.941406 9.558594 C 14.851562 9.558594 14.851562 9.550781 14.867188 9.308594 C 14.90625 8.835938 14.800781 8.769531 13.945312 8.714844 C 13.183594 8.671875 12.398438 8.671875 12.398438 8.710938 C 12.398438 8.726562 12.347656 9.242188 12.28125 9.851562 C 12.214844 10.464844 12.160156 10.980469 12.160156 11 C 12.160156 11.023438 12.21875 11.039062 12.296875 11.039062 C 12.410156 11.039062 12.476562 10.996094 12.722656 10.746094 C 13.199219 10.277344 13.703125 10.078125 14.460938 10.078125 C 14.886719 10.078125 15.246094 10.144531 15.605469 10.277344 C 16 10.429688 15.996094 10.386719 15.734375 10.980469 C 15.488281 11.554688 15.433594 11.640625 15.296875 11.640625 C 15.167969 11.640625 15.152344 11.59375 15.199219 11.375 C 15.277344 11.03125 15.152344 10.800781 14.796875 10.621094 C 14.246094 10.339844 13.304688 10.445312 13.070312 10.808594 C 12.910156 11.058594 12.902344 11.054688 13.488281 11.023438 C 13.78125 11.011719 14.148438 10.988281 14.300781 10.976562 L 14.578125 10.953125 L 14.359375 11.175781 C 14.234375 11.304688 14.035156 11.457031 13.902344 11.519531 C 13.695312 11.628906 13.625 11.640625 13.3125 11.640625 C 12.910156 11.640625 12.894531 11.65625 13.0625 11.902344 C 13.222656 12.148438 13.453125 12.367188 14.101562 12.90625 C 14.433594 13.1875 14.777344 13.484375 14.867188 13.574219 L 15.039062 13.734375 L 15.140625 13.640625 C 15.226562 13.554688 15.253906 13.550781 15.28125 13.601562 C 15.332031 13.679688 15.328125 13.785156 15.277344 13.871094 C 15.238281 13.929688 15.257812 13.980469 15.355469 14.140625 C 15.585938 14.5 15.660156 14.960938 15.554688 15.394531 C 15.402344 16.0625 14.800781 16.640625 13.96875 16.910156 C 13.597656 17.027344 12.800781 17.078125 12.4375 17.003906 C 11.929688 16.898438 11.460938 16.550781 11.28125 16.152344 C 11.210938 15.996094 11.210938 15.980469 11.273438 15.941406 C 11.429688 15.832031 12.03125 15.480469 12.054688 15.480469 C 12.066406 15.480469 12.078125 15.515625 12.078125 15.558594 C 12.078125 15.707031 12.238281 16.066406 12.382812 16.234375 C 12.566406 16.449219 12.835938 16.585938 13.183594 16.640625 C 13.882812 16.753906 14.535156 16.46875 14.761719 15.953125 C 14.925781 15.570312 14.824219 15 14.535156 14.652344 L 14.460938 14.558594 L 14.21875 14.679688 C 13.785156 14.890625 13.488281 14.9375 12.578125 14.90625 C 12.140625 14.894531 11.195312 14.828125 10.480469 14.761719 C 9.765625 14.691406 9 14.625 8.78125 14.613281 C 8.558594 14.601562 8.355469 14.574219 8.324219 14.558594 C 8.289062 14.539062 8.402344 14.429688 8.703125 14.199219 L 9.136719 13.871094 L 9.617188 13.9375 C 10.28125 14.023438 10.339844 14.019531 10.566406 13.875 C 11.023438 13.578125 11.066406 13.410156 11.355469 10.78125 C 11.46875 9.769531 11.570312 8.878906 11.585938 8.804688 L 11.605469 8.667969 L 11.253906 8.695312 C 10.347656 8.769531 9.828125 9.03125 9.570312 9.550781 C 9.472656 9.753906 9.460938 9.824219 9.464844 10.140625 C 9.464844 10.414062 9.488281 10.554688 9.558594 10.738281 L 9.652344 10.976562 L 9.261719 11.351562 C 8.988281 11.609375 8.859375 11.707031 8.835938 11.675781 C 8.820312 11.648438 8.785156 11.476562 8.757812 11.292969 C 8.695312 10.890625 8.753906 10.410156 8.902344 10.011719 C 9.179688 9.269531 9.847656 8.644531 10.644531 8.378906 C 11.195312 8.195312 11.546875 8.160156 12.960938 8.15625 C 13.675781 8.152344 14.496094 8.136719 14.78125 8.125 C 15.066406 8.109375 15.394531 8.09375 15.507812 8.089844 L 15.71875 8.078125 Z M 15.675781 8.1875 "/>
<path style=" stroke:none;fill-rule:nonzero;fill:rgb(0%,0%,0%);fill-opacity:1;" d="M 12.0625 11.867188 C 12.023438 12.296875 11.894531 12.914062 11.796875 13.144531 C 11.683594 13.40625 11.484375 13.640625 11.179688 13.867188 C 11.039062 13.972656 10.929688 14.058594 10.933594 14.066406 C 10.941406 14.070312 11.292969 14.109375 11.71875 14.144531 C 12.636719 14.222656 13.9375 14.238281 14 14.175781 C 14.03125 14.144531 13.910156 14.027344 13.570312 13.753906 C 12.925781 13.222656 12.46875 12.746094 12.335938 12.460938 C 12.246094 12.269531 12.226562 12.171875 12.230469 11.890625 C 12.230469 11.601562 12.222656 11.558594 12.160156 11.558594 C 12.105469 11.558594 12.089844 11.613281 12.0625 11.867188 Z M 12.0625 11.867188 "/>
</g>
</svg>
